<svg id="eSfQ0tRC3z91" xmlns="http://www.w3.org/2000/svg" xmlns:xlink="http://www.w3.org/1999/xlink" viewBox="0 0 965 794" shape-rendering="geometricPrecision" text-rendering="geometricPrecision"><defs><linearGradient id="eSfQ0tRC3z95-fill" x1="335.765" y1="619.486" x2="335.765" y2="340.767" spreadMethod="pad" gradientUnits="userSpaceOnUse" gradientTransform="translate(0 0)"><stop id="eSfQ0tRC3z95-fill-0" offset="0%" stop-color="#ff2a64"/><stop id="eSfQ0tRC3z95-fill-1" offset="3.08184%" stop-color="#ff3462"/><stop id="eSfQ0tRC3z95-fill-2" offset="16.88%" stop-color="#ff595a"/><stop id="eSfQ0tRC3z95-fill-3" offset="31.29%" stop-color="#ff7854"/><stop id="eSfQ0tRC3z95-fill-4" offset="46.26%" stop-color="#ff904e"/><stop id="eSfQ0tRC3z95-fill-5" offset="62.03%" stop-color="#ffa24b"/><stop id="eSfQ0tRC3z95-fill-6" offset="79.13%" stop-color="#ffac49"/><stop id="eSfQ0tRC3z95-fill-7" offset="100%" stop-color="#ffaf48"/></linearGradient><linearGradient id="eSfQ0tRC3z96-fill" x1="356.687" y1="619.486" x2="356.687" y2="340.767" spreadMethod="pad" gradientUnits="userSpaceOnUse" gradientTransform="translate(0 0)"><stop id="eSfQ0tRC3z96-fill-0" offset="0%" stop-color="#ff2a64"/><stop id="eSfQ0tRC3z96-fill-1" offset="3.08184%" stop-color="#ff3462"/><stop id="eSfQ0tRC3z96-fill-2" offset="16.88%" stop-color="#ff595a"/><stop id="eSfQ0tRC3z96-fill-3" offset="31.29%" stop-color="#ff7854"/><stop id="eSfQ0tRC3z96-fill-4" offset="46.26%" stop-color="#ff904e"/><stop id="eSfQ0tRC3z96-fill-5" offset="62.03%" stop-color="#ffa24b"/><stop id="eSfQ0tRC3z96-fill-6" offset="79.13%" stop-color="#ffac49"/><stop id="eSfQ0tRC3z96-fill-7" offset="100%" stop-color="#ffaf48"/></linearGradient><linearGradient id="eSfQ0tRC3z97-fill" x1="377.609" y1="619.486" x2="377.609" y2="340.767" spreadMethod="pad" gradientUnits="userSpaceOnUse" gradientTransform="translate(0 0)"><stop id="eSfQ0tRC3z97-fill-0" offset="0%" stop-color="#ff2a64"/><stop id="eSfQ0tRC3z97-fill-1" offset="3.08184%" stop-color="#ff3462"/><stop id="eSfQ0tRC3z97-fill-2" offset="16.88%" stop-color="#ff595a"/><stop id="eSfQ0tRC3z97-fill-3" offset="31.29%" stop-color="#ff7854"/><stop id="eSfQ0tRC3z97-fill-4" offset="46.26%" stop-color="#ff904e"/><stop id="eSfQ0tRC3z97-fill-5" offset="62.03%" stop-color="#ffa24b"/><stop id="eSfQ0tRC3z97-fill-6" offset="79.13%" stop-color="#ffac49"/><stop id="eSfQ0tRC3z97-fill-7" offset="100%" stop-color="#ffaf48"/></linearGradient><linearGradient id="eSfQ0tRC3z913-fill" x1="619.658" y1="709.135" x2="619.658" y2="327.531" spreadMethod="pad" gradientUnits="userSpaceOnUse" gradientTransform="translate(0 0)"><stop id="eSfQ0tRC3z913-fill-0" offset="0%" stop-color="#ff2a64"/><stop id="eSfQ0tRC3z913-fill-1" offset="3.08184%" stop-color="#ff3462"/><stop id="eSfQ0tRC3z913-fill-2" offset="16.88%" stop-color="#ff595a"/><stop id="eSfQ0tRC3z913-fill-3" offset="31.29%" stop-color="#ff7854"/><stop id="eSfQ0tRC3z913-fill-4" offset="46.26%" stop-color="#ff904e"/><stop id="eSfQ0tRC3z913-fill-5" offset="62.03%" stop-color="#ffa24b"/><stop id="eSfQ0tRC3z913-fill-6" offset="79.13%" stop-color="#ffac49"/><stop id="eSfQ0tRC3z913-fill-7" offset="100%" stop-color="#ffaf48"/></linearGradient><linearGradient id="eSfQ0tRC3z923-fill" x1="476.273" y1="436.373" x2="476.273" y2="7.04985" spreadMethod="pad" gradientUnits="userSpaceOnUse" gradientTransform="translate(0 0)"><stop id="eSfQ0tRC3z923-fill-0" offset="0%" stop-color="#108bb4"/><stop id="eSfQ0tRC3z923-fill-1" offset="100%" stop-color="#40c67c"/></linearGradient><linearGradient id="eSfQ0tRC3z925-fill-g1" x1="533.317" y1="436.373" x2="533.317" y2="7.0499" spreadMethod="pad" gradientUnits="userSpaceOnUse" gradientTransform="translate(0 0)"><stop id="eSfQ0tRC3z925-fill-g1-0" offset="0%" stop-color="#108bb4"/><stop id="eSfQ0tRC3z925-fill-g1-1" offset="100%" stop-color="#40c67c"/></linearGradient><linearGradient id="eSfQ0tRC3z928-fill" x1="363.7085" y1="218.9145" x2="532.5395" y2="218.9145" spreadMethod="pad" gradientUnits="userSpaceOnUse" gradientTransform="translate(0 0)"><stop id="eSfQ0tRC3z928-fill-0" offset="0%" stop-color="#40c67c"/><stop id="eSfQ0tRC3z928-fill-1" offset="100%" stop-color="#108bb4"/></linearGradient></defs><g id="eSfQ0tRC3z92" transform="translate(.000002 0.360322)"><path id="eSfQ0tRC3z93" d="M317.23881,438.967634c0,0-57.639191-53.400747-68.617191-49.009747s64.583381,104.037113,64.583381,104.037113l4.03381-55.027366Z" transform="matrix(.992346-.087489 0.087489 1-38.068142 24.852365)" fill="#223c6a"/><path id="eSfQ0tRC3z94" d="M642.975,437.35c0,0,52.977677-47.803776,63.954677-43.412776C717.907677,398.328224,642.975,493.995,642.975,493.995v-56.645Z" transform="matrix(.992346 0.087489-.087489 1 38.952564-57.966435)" fill="#223c6a"/><path d="M335.818,375.436c3.638,0,6.587-2.949,6.587-6.587s-2.949-6.587-6.587-6.587-6.587,2.949-6.587,6.587s2.949,6.587,6.587,6.587Z" fill="url(#eSfQ0tRC3z95-fill)"/><path d="M356.675,375.436c3.638,0,6.587-2.949,6.587-6.587s-2.949-6.587-6.587-6.587c-3.637,0-6.586,2.949-6.586,6.587s2.949,6.587,6.586,6.587Z" fill="url(#eSfQ0tRC3z96-fill)"/><path d="M377.533,375.436c3.638,0,6.586-2.949,6.586-6.587s-2.948-6.587-6.586-6.587-6.587,2.949-6.587,6.587s2.949,6.587,6.587,6.587Z" fill="url(#eSfQ0tRC3z97-fill)"/><g id="eSfQ0tRC3z98"><path d="M403.222,472.917c11.64,0,21.077-9.436,21.077-21.077c0-11.64-9.437-21.077-21.077-21.077-11.641,0-21.077,9.437-21.077,21.077c0,11.641,9.436,21.077,21.077,21.077Z" transform="translate(-.349867-.349867)" fill="#223c6a"/><path d="M509.046,472.917c11.64,0,21.077-9.436,21.077-21.077c0-11.64-9.437-21.077-21.077-21.077-11.641,0-21.077,9.437-21.077,21.077c0,11.641,9.436,21.077,21.077,21.077Z" transform="translate(-.349867-.349867)" fill="#223c6a"/></g><path d="M395.099,452.938c2.667,0,4.83-2.163,4.83-4.83c0-2.668-2.163-4.83-4.83-4.83-2.668,0-4.83,2.162-4.83,4.83c0,2.667,2.162,4.83,4.83,4.83Z" fill="#fff"/><path d="M500.923,452.938c2.668,0,4.83-2.163,4.83-4.83c0-2.668-2.162-4.83-4.83-4.83s-4.83,2.162-4.83,4.83c0,2.667,2.162,4.83,4.83,4.83Z" fill="#fff"/><path id="eSfQ0tRC3z913" d="M629.361,338.99h-32.933c7.465,0,13.392,6.147,13.392,13.392-.893549,56.44024-2.143387,166.029101,0,219.114c0,7.465-6.147,13.393-13.392,13.393h32.933c7.465,0,13.392-6.147,13.392-13.393-6.25089-55.73815-8.035708-163.988004,0-219.114.22-7.245-5.927-13.392-13.392-13.392Z" transform="translate(.418033-.836066)" fill="url(#eSfQ0tRC3z913-fill)"/><path id="eSfQ0tRC3z914" d="M606.516219,501.278371c0,0-31.604219,84.049629-135.233219,84.049629s0,0,0,0h124.926c0,0,12.514-2.854,13.392-9.221.879-6.367-3.084781-74.828629-3.084781-74.828629Z" fill="#b5e0f7"/><path id="eSfQ0tRC3z915" d="M374.899,509.583c13.823,0,25.029-5.308,25.029-11.856s-11.206-11.856-25.029-11.856-25.029,5.308-25.029,11.856s11.206,11.856,25.029,11.856Z" opacity="0.5" fill="#b5e0f7"/><path id="eSfQ0tRC3z916" d="M546.151,509.583c13.823,0,25.029-5.308,25.029-11.856s-11.206-11.856-25.029-11.856-25.029,5.308-25.029,11.856s11.206,11.856,25.029,11.856Z" opacity="0.5" fill="#b5e0f7"/><path id="eSfQ0tRC3z917" d="M390.707,585.109l8.830331,71.466532c0,0-24.611237,20.672605-19.342237,28.795605c4.171,6.587,30.979237-9.255605,40.859237-18.695605c2.854-2.635,4.391-6.148,4.391-10.1-.050308-15.769785-8.855615-47.020645-8.830331-71.685532h-25.908" transform="translate(-.58505 0)" fill="#223c6a"/><path id="eSfQ0tRC3z918" d="M520.025,585.109v79.698c0,0-22.175,26.127-16.906,34.25c4.172,6.587,28.542-14.71,38.422-24.15c2.854-2.635,4.391-6.148,4.391-10.1v-79.917h-25.907" transform="translate(-.256484 0)" fill="#223c6a"/><path id="eSfQ0tRC3z919" d="M629.362,585.109c-81.957863-3.137956-233.225616-3.910821-302.764,0-7.465,0-13.393-6.148-13.393-13.393c2.590341-56.531254,2.498364-166.088254,0-219.114c0-7.465,6.148-13.393,13.393-13.393c71.761615,3.884325,223.111799,3.506925,302.764,0c7.464,0,13.392,6.148,13.392,13.393-3.716818,52.641941-5.32179,162.621924,0,219.114.22,7.465-5.928,13.393-13.392,13.393Z" fill="none" stroke="#223c6a" stroke-width="5.48883" stroke-linecap="round" stroke-linejoin="round" stroke-miterlimit="10"/><path id="eSfQ0tRC3z920" d="M629.361,338.99l-32.411454,1.415802c7.465,0,12.870454,4.731198,12.870454,11.976198-4.303637,49.703064-3.845454,159.50071,0,219.114c0,7.465-5.879129,12.196524-13.124129,12.196524L629.361,584.889c7.464,0,13.392-6.147,13.392-13.393-4.135999-59.781246-5.040783-169.338246,0-219.114.22-7.245-5.928-13.392-13.392-13.392Z" fill="none" stroke="#223c6a" stroke-width="5.48883" stroke-linecap="round" stroke-linejoin="round" stroke-miterlimit="10"/><path d="M584.792,379.168h-167.08c-2.854,0-5.05-2.195-5.05-5.049v-6.587c0-2.854,2.196-5.05,5.05-5.05h167.08c2.854,0,5.049,2.196,5.049,5.05v6.587c.22,2.634-2.195,5.049-5.049,5.049Z" fill="none" stroke="#223c6a" stroke-width="5.48883" stroke-linecap="round" stroke-linejoin="round" stroke-miterlimit="10"/><path id="eSfQ0tRC3z922" d="M430.447,501.24c0,0,7.246,16.686,28.542,16.686c21.516,0,26.786-16.686,26.786-16.686" fill="none" stroke="#223c6a" stroke-width="5.48883" stroke-linecap="round" stroke-linejoin="round" stroke-miterlimit="10"/></g><path id="eSfQ0tRC3z923" d="M487.53,0h-22.394v78.6h22.394v-78.6Z" transform="translate(0 7)" opacity="0.9" fill="url(#eSfQ0tRC3z923-fill)"/><path id="eSfQ0tRC3z924" d="M440.765,82.7716l-20.638,8.7821-22.395-51.8145L418.37,30.957l22.395,51.8146Z" transform="translate(0 7)" opacity="0.9" fill="#39be84"/><path id="eSfQ0tRC3z925" d="M511.9,82.7716l20.419,8.7821l22.394-51.8145-20.418-8.7822L511.9,82.7716Z" transform="translate(0 7)" opacity="0.9" fill="#108bb4"/><path d="M867.356,114.826h-63.451v671.174h63.451v-671.174Z" transform="translate(0 7)" fill="#386e9f"/><path d="M201.231,213.406h-63.451v572.594h63.451v-572.594Z" transform="translate(0 7)" fill="#386e9f"/><path id="eSfQ0tRC3z928" d="M690.835,151.492h-485.212v27.663h485.212v-27.663Z" transform="translate(0 7.2195)" fill="url(#eSfQ0tRC3z928-fill)"/><path d="M137.563,117.461h-45.228v665.904h45.228v-665.904Z" transform="translate(0 7)" fill="none" stroke="#386e9f" stroke-width="5.48883" stroke-linecap="round" stroke-linejoin="round" stroke-miterlimit="10"/><path d="M803.686,117.461h-45.228v665.904h45.228v-665.904Z" transform="translate(0 7)" fill="none" stroke="#386e9f" stroke-width="5.48883" stroke-linecap="round" stroke-linejoin="round" stroke-miterlimit="10"/><path d="M758.181,117.461h-620.4v96.164h620.4v-96.164Z" transform="translate(0 6.852716)" fill="none" stroke="#386e9f" stroke-width="5.48883" stroke-linecap="round" stroke-linejoin="round" stroke-miterlimit="10"/><path d="M962.203,783.146h-958.56823" transform="translate(0 7)" fill="none" stroke="#223c6a" stroke-width="5.48883" stroke-linecap="round" stroke-linejoin="round" stroke-miterlimit="10"/></svg>